
<svg version="1.1" id="Layer_1" xmlns="http://www.w3.org/2000/svg" xmlns:xlink="http://www.w3.org/1999/xlink" x="0px" y="0px"
	 viewBox="0 0 585 595.5" style="enable-background:new 0 0 585 595.5;" xml:space="preserve" width="600px">
<style type="text/css">
	.st0{opacity:0.5;}
	.st1{fill:none;stroke:#22225B;stroke-width:5;stroke-linecap:round;stroke-linejoin:round;stroke-miterlimit:10;}
	.st2{opacity:0.5;fill:none;stroke:#22225B;stroke-width:5;stroke-linecap:round;stroke-linejoin:round;stroke-miterlimit:10;}
	.st3{fill:none;stroke:#22225B;stroke-miterlimit:10;}

	.st0, .st1, .st2, .st3 {
	stroke-dasharray: 2000;
	stroke-dashoffset:0;
	-webkit-animation: dash 12s linear forwards;
	-o-animation: dash 12s linear forwards;
	-moz-animation: dash 12s linear forwards;
	animation: dash 12s linear forwards;
	}

	@-webkit-keyframes dash {
		from {
			stroke-dashoffset: 2000;
		}
		to {
			stroke-dashoffset: 0;
		}
	}
</style>
<g class="st0">
	<line class="st1" x1="204.7" y1="125.1" x2="189.5" y2="110.8"/>
	<line class="st1" x1="189.9" y1="125.5" x2="204.3" y2="110.3"/>
</g>
<g class="st0">
	<line class="st1" x1="222.3" y1="344.5" x2="207" y2="330.2"/>
	<line class="st1" x1="207.5" y1="345" x2="221.8" y2="329.7"/>
</g>
<g class="st0">
	<line class="st1" x1="36.7" y1="467.1" x2="21.4" y2="452.8"/>
	<line class="st1" x1="21.9" y1="467.6" x2="36.2" y2="452.3"/>
</g>
<g class="st0">
	<line class="st1" x1="30" y1="104.2" x2="14.7" y2="89.9"/>
	<line class="st1" x1="15.2" y1="104.7" x2="29.5" y2="89.4"/>
</g>
<g class="st0">
	<line class="st1" x1="572.4" y1="124.7" x2="557.2" y2="110.4"/>
	<line class="st1" x1="557.6" y1="125.2" x2="571.9" y2="109.9"/>
</g>
<g class="st0">
	<line class="st1" x1="392.5" y1="202.5" x2="377.2" y2="188.2"/>
	<line class="st1" x1="377.7" y1="203" x2="392" y2="187.7"/>
</g>
<g class="st0">
	<line class="st1" x1="466.8" y1="372.3" x2="451.6" y2="358"/>
	<line class="st1" x1="452.1" y1="372.8" x2="466.4" y2="357.5"/>
</g>
<g class="st0">
	<line class="st1" x1="455" y1="510.6" x2="439.8" y2="496.3"/>
	<line class="st1" x1="440.2" y1="511.1" x2="454.5" y2="495.9"/>
</g>
<polygon class="st2" points="318.1,148 307.6,129.8 297.1,148 286.6,166.1 307.6,166.1 328.6,166.1 "/>
<polygon class="st2" points="283.3,370 272.8,351.8 262.4,370 251.9,388.1 272.9,388.1 293.8,388.1 "/>
<polygon class="st2" points="403.7,438.1 393.2,420 382.7,438.1 372.2,456.3 393.2,456.3 414.2,456.3 "/>
<polygon class="st2" points="472.9,298.7 478.3,278.4 458.1,283.9 437.8,289.3 452.7,304.1 467.5,319 "/>
<polygon class="st2" points="128,63.4 133.4,43.1 113.2,48.6 92.9,54 107.7,68.8 122.6,83.7 "/>
<polygon class="st2" points="113.6,501.3 119,481.1 98.8,486.5 78.5,491.9 93.4,506.8 108.2,521.6 "/>
<polygon class="st2" points="494.2,86 512.3,75.5 494.2,65.1 476,54.6 476,75.6 476,96.5 "/>
<polygon class="st2" points="113.2,295.6 131.3,285.1 113.1,274.6 95,264.2 95,285.1 95,306.1 "/>
<circle class="st2" cx="337.6" cy="261.3" r="15.9"/>
<circle class="st2" cx="257.2" cy="83.7" r="15.9"/>
<circle class="st2" cx="267.4" cy="553.3" r="15.9"/>
<path class="st2" d="M325.8,529.5c0-8.8,7.1-15.9,15.9-15.9c8.8,0,15.9,7.1,15.9,15.9"/>
<path class="st2" d="M198.8,285.1c0-8.8,7.1-15.9,15.9-15.9s15.9,7.1,15.9,15.9"/>
<path class="st2" d="M31.4,155.9c0-8.8,7.1-15.9,15.8-15.9c8.7,0,15.8,7.1,15.8,15.9"/>
<path class="st2" d="M432.5,182c-8.8,0-15.9-7.1-15.9-15.8c0-8.7,7.1-15.8,15.9-15.8"/>
<path class="st2" d="M49.3,553.3c-8.8,0-15.9-7.1-15.9-15.8c0-8.7,7.1-15.8,15.9-15.8"/>
<path class="st2" d="M220.1,47.2c-8.8,0-15.9-7.1-15.9-15.8c0-8.7,7.1-15.8,15.9-15.8"/>
<circle class="st2" cx="41.4" cy="385.9" r="15.9"/>
<circle class="st2" cx="532.1" cy="404.1" r="15.9"/>
<rect x="504" y="150.3" class="st2" width="31.7" height="31.7"/>
<rect x="146.1" y="166.1" class="st2" width="31.7" height="31.7"/>
<rect x="144.5" y="368.2" class="st2" width="31.7" height="31.7"/>
<rect x="504" y="521.6" class="st2" width="31.7" height="31.7"/>
<rect x="372.7" y="15.5" class="st2" width="31.7" height="31.7"/>
<g class="st0">
	<path class="st1" d="M327.2,337.3c-6.9,0-5.7-12.3-14.5-12.3"/>
	<path class="st1" d="M356.3,337.3c-6.9,0-5.7-12.3-14.5-12.3"/>
	<path class="st1" d="M327.2,337.3c6.9,0,5.7-12.3,14.5-12.3"/>
	<path class="st1" d="M370.8,325.1"/>
	<path class="st1" d="M356.3,337.3c6.9,0,5.7-12.3,14.5-12.3"/>
</g>
<g class="st0">
	<path class="st1" d="M410,565.6c-6.9,0-5.7-12.3-14.5-12.3"/>
	<path class="st1" d="M439.1,565.6c-6.9,0-5.7-12.3-14.5-12.3"/>
	<path class="st1" d="M410,565.6c6.9,0,5.7-12.3,14.5-12.3"/>
	<path class="st1" d="M453.6,553.3"/>
	<path class="st1" d="M439.1,565.6c6.9,0,5.7-12.3,14.5-12.3"/>
</g>
<g class="st0">
	<path class="st1" d="M449.7,236.5c-6.9,0-5.7-12.3-14.5-12.3"/>
	<path class="st1" d="M478.7,236.5c-6.9,0-5.7-12.3-14.5-12.3"/>
	<path class="st1" d="M449.7,236.5c6.9,0,5.7-12.3,14.5-12.3"/>
	<path class="st1" d="M493.3,224.3"/>
	<path class="st1" d="M478.7,236.5c6.9,0,5.7-12.3,14.5-12.3"/>
</g>
<g class="st0">
	<path class="st1" d="M45.4,221.7c-6.9,0-5.7-12.3-14.5-12.3"/>
	<path class="st1" d="M74.5,221.7c-6.9,0-5.7-12.3-14.5-12.3"/>
	<path class="st1" d="M45.4,221.7c6.9,0,5.7-12.3,14.5-12.3"/>
	<path class="st1" d="M89,209.5"/>
	<path class="st1" d="M74.5,221.7c6.9,0,5.7-12.3,14.5-12.3"/>
</g>
<g class="st0">
	<path class="st1" d="M329.6,57.7c0,6.9-12.3,5.7-12.3,14.5"/>
	<path class="st1" d="M329.6,28.6c0,6.9-12.3,5.7-12.3,14.5"/>
	<path class="st1" d="M329.6,57.7c0-6.9-12.3-5.7-12.3-14.5"/>
	<path class="st1" d="M317.4,14.1"/>
	<path class="st1" d="M329.6,28.6c0-6.9-12.3-5.7-12.3-14.5"/>
</g>
<g class="st0">
	<path class="st1" d="M240.5,209.7c0,6.9-12.3,5.7-12.3,14.5"/>
	<path class="st1" d="M240.5,180.7c0,6.9-12.3,5.7-12.3,14.5"/>
	<path class="st1" d="M240.5,209.7c0-6.9-12.3-5.7-12.3-14.5"/>
	<path class="st1" d="M228.2,166.1"/>
	<path class="st1" d="M240.5,180.7c0-6.9-12.3-5.7-12.3-14.5"/>
</g>
<g class="st0">
	<path class="st1" d="M482.1,452.7c0,6.9-12.3,5.7-12.3,14.5"/>
	<path class="st1" d="M482.1,423.6c0,6.9-12.3,5.7-12.3,14.5"/>
	<path class="st1" d="M482.1,452.7c0-6.9-12.3-5.7-12.3-14.5"/>
	<path class="st1" d="M469.9,409.1"/>
	<path class="st1" d="M482.1,423.6c0-6.9-12.3-5.7-12.3-14.5"/>
</g>
<g class="st0">
	<path class="st1" d="M182.3,475.6c0,6.9-12.3,5.7-12.3,14.5"/>
	<path class="st1" d="M182.3,446.5c0,6.9-12.3,5.7-12.3,14.5"/>
	<path class="st1" d="M182.3,475.6c0-6.9-12.3-5.7-12.3-14.5"/>
	<path class="st1" d="M170,432"/>
	<path class="st1" d="M182.3,446.5c0-6.9-12.3-5.7-12.3-14.5"/>
</g>
<line class="st2" x1="362" y1="370" x2="397.9" y2="370"/>
<line class="st2" x1="9.4" y1="266.3" x2="45.3" y2="266.3"/>
<line class="st2" x1="364.7" y1="99.6" x2="400.6" y2="99.6"/>
<line class="st2" x1="506.1" y1="18.6" x2="542" y2="18.6"/>
<line class="st2" x1="152.4" y1="553.3" x2="188.3" y2="553.3"/>
<line class="st2" x1="244.5" y1="484" x2="269.9" y2="458.6"/>
<line class="st2" x1="34.6" y1="44" x2="59.9" y2="18.6"/>
<line class="st2" x1="524" y1="304" x2="549.4" y2="278.6"/>
<g class="st0">
	<polygon class="st3" points="340.9,161.3 330.4,143.2 319.9,161.3 309.4,179.5 330.4,179.5 351.4,179.5 	"/>
	<polygon class="st3" points="306.2,383.3 295.7,365.2 285.2,383.3 274.7,401.5 295.7,401.5 316.7,401.5 	"/>
	<polygon class="st3" points="426.5,451.5 416,433.3 405.5,451.5 395.1,469.7 416,469.7 437,469.6 	"/>
	<polygon class="st3" points="495.7,312.1 501.1,291.8 480.9,297.2 460.6,302.7 475.5,317.5 490.3,332.3 	"/>
	<polygon class="st3" points="150.8,76.8 156.2,56.5 136,61.9 115.7,67.4 130.5,82.2 145.4,97 	"/>
	<polygon class="st3" points="136.4,514.7 141.9,494.4 121.6,499.9 101.3,505.3 116.2,520.1 131,534.9 	"/>
	<polygon class="st3" points="517,99.4 535.1,88.9 517,78.4 498.8,68 498.8,88.9 498.8,109.9 	"/>
	<polygon class="st3" points="136,309 154.1,298.5 136,288 117.8,277.5 117.8,298.5 117.8,319.5 	"/>
	<circle class="st3" cx="360.4" cy="274.6" r="15.9"/>
	<circle class="st3" cx="280" cy="97" r="15.9"/>
	<circle class="st3" cx="290.2" cy="566.7" r="15.9"/>
	<path class="st3" d="M348.6,542.9c0-8.8,7.1-15.9,15.9-15.9c8.8,0,15.9,7.1,15.9,15.9"/>
	<path class="st3" d="M221.6,298.5c0-8.8,7.1-15.9,15.9-15.9s15.9,7.1,15.9,15.9"/>
	<path class="st3" d="M54.2,169.3c0-8.8,7.1-15.9,15.8-15.9c8.7,0,15.8,7.1,15.8,15.9"/>
	<path class="st3" d="M455.3,195.3c-8.8,0-15.9-7.1-15.9-15.8c0-8.7,7.1-15.8,15.9-15.8"/>
	<path class="st3" d="M72.2,566.6c-8.8,0-15.9-7.1-15.9-15.8s7.1-15.8,15.9-15.8"/>
	<path class="st3" d="M242.9,60.5c-8.8,0-15.9-7.1-15.9-15.8s7.1-15.8,15.9-15.8"/>
	<circle class="st3" cx="64.2" cy="399.2" r="15.9"/>
	<circle class="st3" cx="554.9" cy="417.4" r="15.9"/>
	<rect x="526.8" y="163.7" class="st3" width="31.7" height="31.7"/>
	<rect x="168.9" y="179.5" class="st3" width="31.7" height="31.7"/>
	<rect x="167.3" y="381.6" class="st3" width="31.7" height="31.7"/>
	<rect x="526.8" y="534.9" class="st3" width="31.7" height="31.7"/>
	<rect x="395.5" y="28.8" class="st3" width="31.7" height="31.7"/>
	<g>
		<path class="st3" d="M350,350.7c-6.9,0-5.7-12.3-14.5-12.3"/>
		<path class="st3" d="M379.1,350.7c-6.9,0-5.7-12.3-14.5-12.3"/>
		<path class="st3" d="M350,350.7c6.9,0,5.7-12.3,14.5-12.3"/>
		<path class="st3" d="M393.6,338.5"/>
		<path class="st3" d="M379.1,350.7c6.9,0,5.7-12.3,14.5-12.3"/>
	</g>
	<g>
		<path class="st3" d="M432.8,578.9c-6.9,0-5.7-12.3-14.5-12.3"/>
		<path class="st3" d="M461.9,578.9c-6.9,0-5.7-12.3-14.5-12.3"/>
		<path class="st3" d="M432.8,578.9c6.9,0,5.7-12.3,14.5-12.3"/>
		<path class="st3" d="M476.4,566.7"/>
		<path class="st3" d="M461.9,578.9c6.9,0,5.7-12.3,14.5-12.3"/>
	</g>
	<g>
		<path class="st3" d="M472.5,249.9c-6.9,0-5.7-12.3-14.5-12.3"/>
		<path class="st3" d="M501.6,249.9c-6.9,0-5.7-12.3-14.5-12.3"/>
		<path class="st3" d="M472.5,249.9c6.9,0,5.7-12.3,14.5-12.3"/>
		<path class="st3" d="M516.1,237.6"/>
		<path class="st3" d="M501.6,249.9c6.9,0,5.7-12.3,14.5-12.3"/>
	</g>
	<g>
		<path class="st3" d="M68.2,235.1c-6.9,0-5.7-12.3-14.5-12.3"/>
		<path class="st3" d="M97.3,235.1c-6.9,0-5.7-12.3-14.5-12.3"/>
		<path class="st3" d="M68.2,235.1c6.9,0,5.7-12.3,14.5-12.3"/>
		<path class="st3" d="M111.8,222.8"/>
		<path class="st3" d="M97.3,235.1c6.9,0,5.7-12.3,14.5-12.3"/>
	</g>
	<g>
		<path class="st3" d="M352.4,71c0,6.9-12.3,5.7-12.3,14.5"/>
		<path class="st3" d="M352.4,42c0,6.9-12.3,5.7-12.3,14.5"/>
		<path class="st3" d="M352.4,71c0-6.9-12.3-5.7-12.3-14.5"/>
		<path class="st3" d="M340.2,27.4"/>
		<path class="st3" d="M352.4,42c0-6.9-12.3-5.7-12.3-14.5"/>
	</g>
	<g>
		<path class="st3" d="M263.3,223.1c0,6.9-12.3,5.7-12.3,14.5"/>
		<path class="st3" d="M263.3,194c0,6.9-12.3,5.7-12.3,14.5"/>
		<path class="st3" d="M263.3,223.1c0-6.9-12.3-5.7-12.3-14.5"/>
		<path class="st3" d="M251,179.5"/>
		<path class="st3" d="M263.3,194c0-6.9-12.3-5.7-12.3-14.5"/>
	</g>
	<g>
		<path class="st3" d="M504.9,466c0,6.9-12.3,5.7-12.3,14.5"/>
		<path class="st3" d="M504.9,437c0,6.9-12.3,5.7-12.3,14.5"/>
		<path class="st3" d="M504.9,466c0-6.9-12.3-5.7-12.3-14.5"/>
		<path class="st3" d="M492.7,422.4"/>
		<path class="st3" d="M504.9,437c0-6.9-12.3-5.7-12.3-14.5"/>
	</g>
	<g>
		<path class="st3" d="M205.1,488.9c0,6.9-12.3,5.7-12.3,14.5"/>
		<path class="st3" d="M205.1,459.9c0,6.9-12.3,5.7-12.3,14.5"/>
		<path class="st3" d="M205.1,488.9c0-6.9-12.3-5.7-12.3-14.5"/>
		<path class="st3" d="M192.9,445.3"/>
		<path class="st3" d="M205.1,459.9c0-6.9-12.3-5.7-12.3-14.5"/>
	</g>
	<line class="st3" x1="384.9" y1="383.3" x2="420.7" y2="383.3"/>
	<line class="st3" x1="32.2" y1="279.7" x2="68.1" y2="279.7"/>
	<line class="st3" x1="387.5" y1="112.9" x2="423.4" y2="112.9"/>
	<line class="st3" x1="528.9" y1="32" x2="564.8" y2="32"/>
	<line class="st3" x1="175.2" y1="566.6" x2="211.1" y2="566.6"/>
	<line class="st3" x1="267.3" y1="497.3" x2="292.7" y2="472"/>
	<line class="st3" x1="57.4" y1="57.4" x2="82.7" y2="32"/>
	<line class="st3" x1="546.9" y1="317.4" x2="572.2" y2="292"/>
</g>
<path class="st2" d="M336,454.9c-2.9,1.8-6.8,1-8.6-2c-1.8-2.9-1-6.8,2-8.6c2.9-1.8,6.8-1,8.6,2C339.8,449.2,338.9,453,336,454.9z"
	/>
<ellipse transform="matrix(0.8464 -0.5326 0.5326 0.8464 -104.1017 193.4552)" class="st2" cx="283.3" cy="277.2" rx="6.3" ry="6.3"/>
<ellipse transform="matrix(0.8464 -0.5326 0.5326 0.8464 -167.0364 81.2797)" class="st2" cx="57.4" cy="330.2" rx="6.3" ry="6.3"/>
<ellipse transform="matrix(0.8464 -0.5326 0.5326 0.8464 -52.105 85.1851)" class="st2" cx="121.6" cy="132.9" rx="6.3" ry="6.3"/>
<ellipse transform="matrix(0.8464 -0.5326 0.5326 0.8464 2.5263 268.3372)" class="st2" cx="466.4" cy="129.8" rx="6.3" ry="6.3"/>
<ellipse transform="matrix(0.8464 -0.5326 0.5326 0.8464 -102.8057 349.7776)" class="st2" cx="554.9" cy="353.1" rx="6.3" ry="6.3"/>
</svg>
