
<svg version="1.1" xmlns="http://www.w3.org/2000/svg" xmlns:xlink="http://www.w3.org/1999/xlink" x="0px" y="0px"
	 viewBox="0 0 65.3 86.7" style="enable-background:new 0 0 65.3 86.7;" xml:space="preserve">
<style type="text/css">
	.st0{fill:none;stroke:#fff;stroke-width:3;stroke-miterlimit:10;}
	.st1{fill:none;stroke:#fff;stroke-width:3.5;stroke-miterlimit:10;}
	.st2{fill:#fff;}

</style>
<g id="Layer_3">
</g>
<g id="Layer_2">
	<g>
		<line class="st0" x1="22.6" y1="81.2" x2="51.1" y2="81.2"/>
		<circle class="st1" cx="37.1" cy="38" r="24.2"/>
		<path class="st0" d="M52.7,66.7c-4.7,2.6-10.2,4.1-15.9,4.1C18.7,70.8,4,56.1,4,38c0-13.3,7.9-24.8,19.3-29.9"/>
		<line class="st0" x1="20.3" y1="2.7" x2="26.3" y2="14.8"/>
		<line class="st0" x1="49.3" y1="60.2" x2="54.5" y2="71.4"/>
		<line class="st0" x1="37.5" y1="70.8" x2="37.5" y2="81.2"/>
		<g>
			<g>
				<path class="st2" d="M37.7,22.5v3.4L27.4,33l10.3,7.1v3.4l-13.9-9v-2.9L37.7,22.5z"/>
			</g>
			<g>
				<path class="st2" d="M50.5,41v2.9l-13.9,9v-3.4l10.3-7.1l-10.3-7.1V32L50.5,41z"/>
			</g>
		</g>
	</g>
</g>
</svg>
